<?xml version="1.0" encoding="utf-8" ?>
<svg xmlns="http://www.w3.org/2000/svg" xmlns:xlink="http://www.w3.org/1999/xlink" width="819" height="819">
	<path fill="#FEFEFE" transform="scale(0.799805 0.799805)" d="M0 0L1024 0L1024 1024L0 1024L0 0Z"/>
	<path fill="#144E64" transform="scale(0.799805 0.799805)" d="M191.693 763.675C203.159 762.855 211.698 767.13 220.162 774.341L213.441 782.561C210.381 779.486 206.581 776.792 202.393 775.535C195.993 773.614 188.432 773.936 182.522 777.206C177.002 780.26 172.609 786.053 171.087 792.139C169.669 797.804 171.01 804.135 174.027 809.08C177.555 814.86 183.159 818.695 189.767 820.069C196.149 821.396 202.36 819.502 207.742 816.099L212.945 811.441L220.249 820.167C214.276 824.966 207.196 829.357 199.454 830.418C190.468 831.649 180.323 829.791 172.998 824.237C165.941 818.888 160.748 810.771 159.593 801.924C158.367 792.527 160.892 784.008 166.708 776.6C173.049 768.524 181.759 764.948 191.693 763.675Z"/>
	<path fill="#144E64" transform="scale(0.799805 0.799805)" d="M425.011 765.505L472.524 765.463L472.504 776.301L436.622 776.554L436.669 791.634L469.501 791.502L469.454 802.223L438.875 802.315L437 802.482C436.252 803.755 436.549 805.298 436.549 806.764C436.548 810.947 436.548 815.13 436.548 819.313L474.326 819.453L474.342 830.056L425.06 830.254L425.011 765.505Z"/>
	<path fill="#144E64" transform="scale(0.799805 0.799805)" d="M826.742 765.262L863.949 764.939L863.89 774.889L824.461 775.57L824.449 792.203L859.423 792.088L859.445 802.7L824.552 802.736L824.539 807.875L824.507 820.157L863.996 820.055L863.981 830.408L812.652 830.427L812.439 765.371L826.742 765.262Z"/>
	<path fill="#144E64" transform="scale(0.799805 0.799805)" d="M717.705 764.177L728.103 764.139L750.997 798.113L773.892 765.286L783.993 765.478L783.991 830.253L772.382 830.348L772.521 797.718L773.619 785.358L750.666 818.503L729.657 788.055L729.586 830.462L716.991 830.462C716.94 812.731 716.935 795.001 716.965 777.27C716.971 774.22 716.976 771.169 716.982 768.118C716.983 767.47 716.784 765.828 716.988 765.25C717.131 764.844 717.466 764.535 717.705 764.177Z"/>
	<path fill="#144E64" transform="scale(0.799805 0.799805)" d="M538.052 765.153C544.712 765.173 551.373 765.189 558.033 765.265C570.048 765.403 581.085 765.733 590.303 774.512C596.224 780.151 599.571 788.384 599.677 796.5C599.817 807.136 597.167 814.009 589.668 821.609C580.284 829.922 568.999 830.269 557.128 830.266C550.841 830.265 544.555 830.224 538.269 830.185L538.052 765.153Z"/>
	<path fill="#FEFEFE" transform="scale(0.799805 0.799805)" d="M550.563 776.728C560.287 776.62 572.031 775.62 580.028 782.107C584.005 785.333 586.659 790.189 587.028 795.324C587.522 802.209 585.697 807.855 581.141 813.005C571.982 820.433 561.448 818.962 550.432 818.973L550.563 776.728Z"/>
	<path fill="#144E64" transform="scale(0.799805 0.799805)" d="M337.932 764.44C344.188 764.435 350.443 764.434 356.699 764.449C369.342 764.479 379.058 764.763 388.838 773.659C395.264 779.503 399.023 786.867 399.25 795.65C399.505 805.535 396.89 813.209 390.154 820.361C385.791 824.18 381.285 827.063 375.679 828.713C369.915 830.409 364.17 830.221 358.233 830.229C351.506 830.238 344.779 830.251 338.053 830.258L337.932 764.44Z"/>
	<path fill="#FEFEFE" transform="scale(0.799805 0.799805)" d="M359.122 775.232C362.571 775.141 366.619 775.035 369.99 775.731C375.79 776.929 380.643 780.471 383.837 785.425C387.157 790.575 388.085 797.283 386.617 803.203C385.058 809.494 381.518 813.667 376.125 817.014C368.153 820.793 357.932 819.552 349.224 819.55L349.279 775.869L359.122 775.232Z"/>
	<path fill="#144E64" transform="scale(0.799805 0.799805)" d="M276.184 763.717C278.947 763.851 281.654 764.041 284.356 764.688C293.491 766.877 301.153 772.759 306.018 780.763C310.197 787.637 311.825 796.712 309.775 804.575L309.526 805.5C308.161 810.682 305.78 815.416 302.206 819.422C295.143 827.339 286.575 830.208 276.303 830.82C268.053 830.468 260.474 828.493 253.998 823.116C247.19 817.464 242.858 810.446 242.168 801.5C241.411 791.691 243.94 782.344 250.543 774.888C257.347 767.204 266.237 764.313 276.184 763.717Z"/>
	<path fill="#FEFEFE" transform="scale(0.799805 0.799805)" d="M271.83 774.635C276.861 774.15 281.628 774.275 286.23 776.599C292.023 779.523 296.51 784.965 298.298 791.202C300.088 797.449 299.35 803.612 296.127 809.269C292.902 814.931 287.821 818.165 281.647 819.852C276.371 821.034 271.077 820.559 266.211 818.162C260.732 815.462 256.49 810.416 254.529 804.657C252.638 799.106 252.748 791.986 255.574 786.75C259.137 780.15 264.836 776.699 271.83 774.635Z"/>
	<path fill="#144E64" transform="scale(0.799805 0.799805)" d="M653.562 763.192C662.006 762.856 669.558 764.711 676.264 769.984C683.623 775.77 689.57 784.104 690.522 793.657C691.461 803.082 688.625 811.675 682.605 818.92C676.113 826.735 667.669 830.867 657.625 831.79C649.104 832.664 639.59 829.171 633.038 823.806C626.324 818.308 621.924 810.686 621.112 802.012C620.179 792.041 621.888 783.23 628.476 775.472C635.034 767.749 643.612 764.004 653.562 763.192Z"/>
	<path fill="#FEFEFE" transform="scale(0.799805 0.799805)" d="M651.536 775.074C654.658 774.769 658.182 774.734 661.25 775.456C667.513 776.93 672.33 780.523 675.491 786.112C678.3 791.079 679.571 797.667 677.852 803.212L677.591 804C677.019 805.786 676.388 807.366 675.44 808.994C672.256 814.462 667.161 817.725 661.145 819.329C655.327 820.253 649.983 819.909 644.726 817.027C639.139 813.965 635.693 809.16 634.009 803.045C632.391 797.172 633.707 790.217 636.868 785.101C640.176 779.747 645.513 776.509 651.536 775.074Z"/>
	<path fill="#176577" transform="scale(0.799805 0.799805)" d="M501.864 192.716C526.165 191.078 551.466 194.158 575.067 199.826C581.217 201.302 588.071 202.85 593.827 205.511L575.56 207.882C564.552 209.836 553.531 213.034 542.825 216.22C511.414 225.568 483.545 238.814 455.5 255.498C391.011 293.862 336.21 346.528 293.453 408.082L258.129 466.724C257.622 451.884 257.18 437.444 258.593 422.614C263.481 371.328 285.714 320.021 319.884 281.402C330.46 269.45 341.853 257.966 354.333 247.992C387.675 221.345 428.154 203.209 470.201 195.935C480.695 194.12 491.247 193.361 501.864 192.716Z"/>
	<path fill="#176577" transform="scale(0.799805 0.799805)" d="M324.505 462.375C329.488 455.06 334.742 447.969 340.039 440.88C343.244 436.591 346.474 431.368 350.75 428.093C353.611 425.902 357.005 424.511 360.54 423.871C366.631 422.768 373.098 424.467 378.078 428.05C381.9 430.8 385.441 434.135 389.057 437.169C397.218 444.017 405.244 451.006 413.229 458.057C474.967 512.576 530.187 575.127 575.205 644.164C580.52 652.315 585.591 660.587 590.475 669.003C593.229 673.749 596.269 678.571 598.451 683.605C580.57 691.187 560.092 695.103 540.877 697.338C540.935 694.068 537.324 689.635 535.617 686.914C529.11 676.535 522.047 666.599 514.973 656.607C480.958 608.565 441.725 565.145 398.972 524.75C383.626 510.25 368.079 495.838 351.732 482.465C346.374 478.082 341.044 473.65 335.63 469.337C332.149 466.565 328.955 463.396 324.505 462.375Z"/>
	<path fill="#144E64" transform="scale(0.799805 0.799805)" d="M324.505 462.375C328.955 463.396 332.149 466.565 335.63 469.337C341.044 473.65 346.374 478.082 351.732 482.465C368.079 495.838 383.626 510.25 398.972 524.75C441.725 565.145 480.958 608.565 514.973 656.607C522.047 666.599 529.11 676.535 535.617 686.914C537.324 689.635 540.935 694.068 540.877 697.338C502.306 701.737 462.955 697.462 426.344 684.395C360.534 660.907 306.143 609.189 276.428 546.255C280.882 535.763 286.462 525.486 291.899 515.469C301.86 497.113 312.519 479.485 324.505 462.375Z"/>
	<path fill="#71D9C7" transform="scale(0.799805 0.799805)" d="M456.576 316.366C461.126 317.246 466.88 321.329 470.826 323.791C482.322 330.963 493.522 338.534 504.362 346.661C550.559 381.296 592.423 420.171 630.664 463.423C647.065 481.972 662.941 501.071 677.482 521.131C688.648 536.534 699.285 552.242 709.588 568.235C714.063 575.181 717.997 582.48 722.658 589.293C716.992 596.694 711.541 604.164 705.433 611.23C695.046 623.244 683.232 634.524 670.983 644.627L657.113 655.069C648.41 637.621 637.904 620.988 627.362 604.609C587.5 542.674 540.045 486.021 486.965 434.967C472.289 420.851 457.023 407.13 441.631 393.8C438.049 390.698 434.464 387.58 430.729 384.665C427.023 381.772 422.896 378.987 419.943 375.293C416.067 370.447 414.814 363.989 415.572 357.944C415.969 354.781 417.573 351.492 419.503 349C423.287 344.112 428.975 339.815 433.646 335.787C441.23 329.246 448.795 322.673 456.576 316.366Z"/>
	<path fill="#09AE92" transform="scale(0.799805 0.799805)" d="M622.351 217.525C623.11 217.565 623.798 217.725 624.5 218.018C633.936 221.966 643.231 227.862 651.745 233.484C691.254 259.575 725.384 297.411 743.791 341.367C742.361 342.928 741.178 344.713 740.128 346.547C732.659 359.585 725.592 373.085 718.817 386.501C716.009 392.062 712.434 398.022 710.614 404C709.616 407.279 709.078 410.913 710.123 414.25C710.703 416.102 711.969 418.252 713.784 419.11C716.436 420.363 719.873 420.227 722.517 419.019C725.218 417.786 727.418 415.22 728.98 412.75C732.633 406.975 735.047 399.989 737.309 393.571C741.792 380.854 745.283 367.791 749.973 355.172L761.318 393.288C772.518 443.936 766.653 498.294 746.248 545.889C742.245 555.225 737.97 564.604 732.525 573.194L702.037 524.192L680.396 493.924C688.189 483.757 696.303 474.099 702.154 462.599C704.892 457.217 707.247 451.124 707.33 445C707.377 441.576 706.449 437.953 703.96 435.497C702.138 433.699 699.803 432.88 697.25 432.979C686.82 433.381 667.973 461.855 660.456 470.378C650.575 457.991 639.586 446.289 628.846 434.651C582.784 384.739 531.06 337.545 472.493 302.671C482.602 293.576 494.621 285.59 505.923 278.001C532.448 260.19 560.151 243.777 589.364 230.732C600.226 225.881 611.285 221.837 622.351 217.525Z"/>
</svg>
